<svg width="24" height="24" viewBox="0 0 24 24" fill="none" xmlns="http://www.w3.org/2000/svg">
<mask id="path-1-inside-1_1763_583" fill="white">
<path d="M12 22C10.6333 22 9.34167 21.7375 8.125 21.2125C6.90833 20.6875 5.84583 19.9708 4.9375 19.0625C4.02917 18.1542 3.3125 17.0917 2.7875 15.875C2.2625 14.6583 2 13.3583 2 11.975C2 10.6083 2.2625 9.31667 2.7875 8.1C3.3125 6.88333 4.02917 5.825 4.9375 4.925C5.84583 4.025 6.90833 3.3125 8.125 2.7875C9.34167 2.2625 10.6417 2 12.025 2C13.3917 2 14.6833 2.2625 15.9 2.7875C17.1167 3.3125 18.175 4.025 19.075 4.925C19.975 5.825 20.6875 6.88333 21.2125 8.1C21.7375 9.31667 22 10.6167 22 12C22 13.3667 21.7375 14.6583 21.2125 15.875C20.6875 17.0917 19.975 18.1542 19.075 19.0625C18.175 19.9708 17.1167 20.6875 15.9 21.2125C14.6833 21.7375 13.3833 22 12 22ZM12 20.5C14.3667 20.5 16.375 19.6708 18.025 18.0125C19.675 16.3542 20.5 14.35 20.5 12C20.5 9.63333 19.675 7.625 18.025 5.975C16.375 4.325 14.3667 3.5 12 3.5C9.65 3.5 7.64583 4.325 5.9875 5.975C4.32917 7.625 3.5 9.63333 3.5 12C3.5 14.35 4.32917 16.3542 5.9875 18.0125C7.64583 19.6708 9.65 20.5 12 20.5Z"/>
</mask>
<path d="M12 22C10.6333 22 9.34167 21.7375 8.125 21.2125C6.90833 20.6875 5.84583 19.9708 4.9375 19.0625C4.02917 18.1542 3.3125 17.0917 2.7875 15.875C2.2625 14.6583 2 13.3583 2 11.975C2 10.6083 2.2625 9.31667 2.7875 8.1C3.3125 6.88333 4.02917 5.825 4.9375 4.925C5.84583 4.025 6.90833 3.3125 8.125 2.7875C9.34167 2.2625 10.6417 2 12.025 2C13.3917 2 14.6833 2.2625 15.9 2.7875C17.1167 3.3125 18.175 4.025 19.075 4.925C19.975 5.825 20.6875 6.88333 21.2125 8.1C21.7375 9.31667 22 10.6167 22 12C22 13.3667 21.7375 14.6583 21.2125 15.875C20.6875 17.0917 19.975 18.1542 19.075 19.0625C18.175 19.9708 17.1167 20.6875 15.9 21.2125C14.6833 21.7375 13.3833 22 12 22ZM12 20.5C14.3667 20.5 16.375 19.6708 18.025 18.0125C19.675 16.3542 20.5 14.35 20.5 12C20.5 9.63333 19.675 7.625 18.025 5.975C16.375 4.325 14.3667 3.5 12 3.5C9.65 3.5 7.64583 4.325 5.9875 5.975C4.32917 7.625 3.5 9.63333 3.5 12C3.5 14.35 4.32917 16.3542 5.9875 18.0125C7.64583 19.6708 9.65 20.5 12 20.5Z" fill="#533939"/>
<path d="M12 20C10.8971 20 9.87593 19.7898 8.91739 19.3762L7.33261 23.0488C8.80741 23.6852 10.3696 24 12 24V20ZM8.91739 19.3762C7.92535 18.9481 7.07565 18.3722 6.35171 17.6483L3.52329 20.4767C4.61602 21.5694 5.89132 22.4269 7.33261 23.0488L8.91739 19.3762ZM6.35171 17.6483C5.62778 16.9243 5.05191 16.0747 4.62383 15.0826L0.951167 16.6674C1.57309 18.1087 2.43056 19.384 3.52329 20.4767L6.35171 17.6483ZM4.62383 15.0826C4.21154 14.1271 4 13.098 4 11.975H0C0 13.6186 0.313456 15.1895 0.951167 16.6674L4.62383 15.0826ZM4 11.975C4 10.8721 4.21022 9.85092 4.62383 8.89239L0.951167 7.30761C0.314781 8.78241 0 10.3446 0 11.975H4ZM4.62383 8.89239C5.05121 7.90197 5.62521 7.05908 6.34518 6.34572L3.52982 3.50428C2.43312 4.59092 1.57379 5.8647 0.951167 7.30761L4.62383 8.89239ZM6.34518 6.34572C7.06973 5.62782 7.9215 5.05357 8.91739 4.62383L7.33261 0.951167C5.89517 1.57143 4.62194 2.42218 3.52982 3.50428L6.34518 6.34572ZM8.91739 4.62383C9.87285 4.21154 10.902 4 12.025 4V0C10.3814 0 8.81048 0.313456 7.33261 0.951167L8.91739 4.62383ZM12.025 4C13.1279 4 14.1491 4.21022 15.1076 4.62383L16.6924 0.951167C15.2176 0.314781 13.6554 0 12.025 0V4ZM15.1076 4.62383C16.1019 5.05287 16.9468 5.62527 17.6608 6.33921L20.4892 3.51079C19.4032 2.42473 18.1314 1.57213 16.6924 0.951167L15.1076 4.62383ZM17.6608 6.33921C18.3747 7.05316 18.9471 7.89811 19.3762 8.89239L23.0488 7.30761C22.4279 5.86856 21.5753 4.59684 20.4892 3.51079L17.6608 6.33921ZM19.3762 8.89239C19.7885 9.84785 20 10.877 20 12H24C24 10.3564 23.6865 8.78548 23.0488 7.30761L19.3762 8.89239ZM20 12C20 13.1029 19.7898 14.1241 19.3762 15.0826L23.0488 16.6674C23.6852 15.1926 24 13.6304 24 12H20ZM19.3762 15.0826C18.9464 16.0785 18.3722 16.9303 17.6543 17.6548L20.4957 20.4702C21.5778 19.3781 22.4286 18.1048 23.0488 16.6674L19.3762 15.0826ZM17.6543 17.6548C16.9409 18.3748 16.098 18.9488 15.1076 19.3762L16.6924 23.0488C18.1353 22.4262 19.4091 21.5669 20.4957 20.4702L17.6543 17.6548ZM15.1076 19.3762C14.1521 19.7885 13.123 20 12 20V24C13.6436 24 15.2145 23.6865 16.6924 23.0488L15.1076 19.3762ZM12 22.5C14.8919 22.5 17.4125 21.4637 19.4428 19.4231L16.6072 16.6019C15.3375 17.878 13.8415 18.5 12 18.5V22.5ZM19.4428 19.4231C21.4676 17.3881 22.5 14.876 22.5 12H18.5C18.5 13.824 17.8824 15.3202 16.6072 16.6019L19.4428 19.4231ZM22.5 12C22.5 9.11138 21.4702 6.59181 19.4392 4.56079L16.6108 7.38921C17.8798 8.65819 18.5 10.1553 18.5 12H22.5ZM19.4392 4.56079C17.4082 2.52976 14.8886 1.5 12 1.5V5.5C13.8447 5.5 15.3418 6.12024 16.6108 7.38921L19.4392 4.56079ZM12 1.5C9.12402 1.5 6.61188 2.53243 4.57685 4.55723L7.39815 7.39277C8.67979 6.11757 10.176 5.5 12 5.5V1.5ZM4.57685 4.55723C2.53634 6.58749 1.5 9.10814 1.5 12H5.5C5.5 10.1585 6.12199 8.66251 7.39815 7.39277L4.57685 4.55723ZM1.5 12C1.5 14.8792 2.53902 17.3925 4.57329 19.4267L7.40171 16.5983C6.11931 15.3159 5.5 13.8208 5.5 12H1.5ZM4.57329 19.4267C6.60755 21.461 9.12078 22.5 12 22.5V18.5C10.1792 18.5 8.68412 17.8807 7.40171 16.5983L4.57329 19.4267Z" fill="#F4511E" mask="url(#path-1-inside-1_1763_583)"/>
<path d="M7.5 12.5L10.4979 15.9262C10.7537 16.2186 11.2157 16.1945 11.4397 15.8771L17 8" stroke="#F4511E" stroke-width="1.3" stroke-linecap="round"/>
</svg>
